<svg xmlns="http://www.w3.org/2000/svg" width="1024" height="1024"><path fill="#e22e2d" d="M360.475 185.87q6.321.001 12.643-.005 12.304-.005 24.607 0 10.035.003 20.072.001h2.917l5.874-.001q27.375-.004 54.751.006 23.3.005 46.6-.001a117389 117389 0 0 1 60.39-.004h2.91q9.97.002 19.94-.002c68.123-.022 68.123-.022 96.206.408q3.17.049 6.34.082c14.536.165 28.31 1.101 41.9 6.771 4.961 2.044 4.961 2.044 10.148 3.367 2.677.61 3.397 1.515 5.227 3.508a166 166 0 0 0 4.875 3c9.526 5.994 17.81 13.31 25.438 21.563l1.437 1.553C806 229.74 806 229.74 806 232h2l.883 1.617c2.676 4.888 2.676 4.888 5.574 9.645 10.958 17.03 13.997 36.046 13.975 55.905l.031 5.045c.028 4.576.037 9.151.043 13.727.01 4.944.036 9.889.06 14.833.045 9.654.073 19.309.096 28.963q.029 11.765.074 23.53l.012 3.387.026 6.811c.105 28.322.168 56.645.22 84.967l.02 10.675q.087 47.445.108 94.89l.007 12.766q.013 18.187.006 36.374-.003 5.486.001 10.972c.02 31.66.02 31.66-.539 43.642l-.1 2.224c-1.674 29.04-16.704 55.138-37.82 74.553-4.552 4.001-9.47 7.38-14.677 10.474l-1.936 1.154c-8.308 4.834-16.177 9.068-26.064 6.846-5.569-2.189-9.426-5.542-12-11-1.534-6.433-1.338-11.13 2-17 3.44-5.492 8.257-7.424 13.938-10.062 17.691-8.33 29.449-22.594 36.182-40.998 2.95-9.45 3.447-18.194 3.388-28.012q.006-2.526.019-5.053c.016-4.591.008-9.182-.004-13.774-.01-4.966.005-9.932.016-14.898.018-9.714.014-19.428.002-29.142q-.013-11.847-.006-23.695l.002-3.413.004-6.864a43068 43068 0 0 0-.023-64.3q-.026-27.555.003-55.11a40605 40605 0 0 0 .012-74.31q-.003-11.825.012-23.651.018-14.422-.013-28.846c-.01-4.901-.015-9.802-.001-14.703q.017-6.743-.016-13.485-.008-2.426.007-4.853c.06-10.637-1.354-19.653-4.522-29.831l-.502-2.355L786 268l-2-1a93 93 0 0 1-1.937-4.312c-3.409-7.05-8.587-12.204-14.063-17.688l-1.777-1.812c-17.773-16.642-41.011-18.506-64.06-18.449l-5.23-.011c-4.744-.01-9.488-.008-14.233-.004-5.134.002-10.268-.007-15.403-.014q-15.06-.018-30.12-.012a33123 33123 0 0 1-35.12-.01q-33.233-.014-66.467-.003c-20.248.006-40.496-.006-60.744-.025q-31.23-.03-62.46-.024-17.516.005-35.03-.014-14.909-.019-29.816-.002c-5.065.006-10.13.007-15.196-.005q-6.969-.014-13.938.007-2.506.004-5.014-.008c-22.98-.103-44.115 4.629-61.267 20.824-11.996 12.916-17.926 28.187-18.7 45.644l-.124 2.728c-.521 12.828-.407 25.667-.363 38.503q.008 3.903.013 7.806.017 9.44.049 18.881l3.702-.018c79.226-.393 158.451-.742 376.665-.828q11.385.04 22.77.06 13.715.024 27.43.099c4.593.026 9.186.045 13.779.048q6.231.006 12.462.062 2.241.015 4.481.01c13.79-.03 13.79-.03 19.711 4.567 1.742 1.816 1.742 1.816 2.875 3.563l1.18 1.753c2.6 4.631 2.61 9.533 1.945 14.684-2.27 5.882-6.441 10.102-12 13-3.357 1.058-6.477 1.137-9.986 1.158l-3.714.03-4.065.017-4.287.03q-5.817.04-11.633.068c-4.054.022-8.107.05-12.16.076q-11.512.074-23.024.138-13.106.076-26.212.16-26.96.17-53.919.323v1h-5v-2l-274 1v1h-7v-1h-40a322472 322472 0 0 0-.055 120.941v2.571q-.008 20.572-.022 41.145-.014 21.13-.017 42.257-.002 13.024-.014 26.05-.008 8.946-.006 17.892.002 5.153-.005 10.304c-.04 29.547.027 55.241 22.119 77.84 14.428 12.847 30.926 18.497 50.044 18.372l3.813.011c3.458.01 6.915.002 10.373-.009 3.743-.009 7.485 0 11.227.006q9.711.014 19.422 0c9.37-.011 18.738-.002 28.107.013q22.823.035 45.644.04l2.756.002a86012 86012 0 0 0 41.505 0h2.756q22.748 0 45.495.042 14.019.024 28.037.002 9.6-.013 19.201.012c3.691.008 7.382.01 11.074-.005 4.003-.016 8.006-.002 12.01.015l3.524-.03c8.308.074 13.77 1.499 19.887 7.217 2.955 4.605 4.472 8.97 3.898 14.492-1.25 5.613-3.05 9.48-7.585 13.008-7.12 4.048-13.32 4.099-21.336 4.073l-3.741.011q-5.13.012-10.26.004c-3.69-.002-7.382.007-11.074.014q-10.848.018-21.695.012-8.827-.002-17.653.005l-2.539.001-5.108.004q-23.957.014-47.915.003c-14.583-.006-29.166.006-43.75.025q-22.487.03-44.975.024c-8.41-.002-16.82 0-25.228.014q-10.75.019-21.497.002c-3.65-.006-7.3-.008-10.95.005-34.617.106-34.617.106-51.092-6.01l-2.092-.76C253.629 783.158 243.393 776.13 234 768l-2.48-2.043c-11.984-10.2-22-24.161-27.52-38.957l-2 1-.332-2.203c-1.01-6.41-2.298-12.644-3.984-18.91-1.356-5.727-1.81-11.287-1.813-17.162l-.005-2.126c-.005-2.344-.002-4.688 0-7.032l-.007-5.101q-.008-7.002-.004-14.004-.002-7.554-.01-15.109-.012-14.799-.012-29.598 0-12.033-.006-24.064-.014-34.12-.012-68.242v-7.436q-.002-29.837-.023-59.675-.023-30.645-.02-61.289.001-17.2-.014-34.403-.014-14.647-.005-29.295.007-7.47-.005-14.94-.011-6.846.002-13.694.003-2.467-.005-4.936c-.102-32.01 10.367-57.793 32.443-80.965 21.78-21.811 48.563-30.845 78.757-31.433l4.93-.114c16.2-.358 32.398-.413 48.6-.4"/><path fill="#e22e2e" d="M740 477c4.281 3.684 7.447 7.372 8.32 13.102.298 5.776-1.027 10.148-4.32 14.898-4.344 4.465-9.87 5.978-15.645 7.863-12.859 4.37-20.864 11.025-27.168 23.137-5.823 13.985-4.29 30.128-4.21 44.941.115 25.4-3.494 44.732-21.622 63.856C673 647 673 647 671 647c1.5 3.707 3.622 5.551 6.688 8.063 10.106 8.881 17.311 22.14 18.564 35.657.174 3.219.285 6.433.373 9.655l.117 3.639c.326 11.39.324 22.78.221 34.173-.357 15.996-.357 15.996 2.975 31.5l1.027 2.95c.92 2.49.92 2.49 3.035 4.363l1.625 3.188c2.52 4.517 6.138 7.883 10.375 10.812l2.063.508C720 792 720 792 721.258 793.41c3.162 2.886 7.696 3.508 11.762 4.608 5.196 1.495 9.005 3.339 12.343 7.806 2.956 5.802 3.963 11.033 1.942 17.348-2.582 5.77-6.142 9.08-11.68 12.14-12.766 3.344-25.796-3.03-36.625-9.312-3.17-2.161-6.092-4.502-9-7l-1.785-1.387C670.429 803.473 661.567 781.971 659 760c-.27-4.997-.3-9.984-.309-14.988q-.015-2.096-.037-4.192a3404 3404 0 0 1-.11-17.587q-.026-5.42-.085-10.84a721 721 0 0 1-.018-6.062c-.074-6.835-.504-12.13-3.441-18.331l-1.07-2.32c-4.34-7.425-10.69-10.652-18.308-14.233-6.165-2.912-10.382-5.208-13.622-11.447-1.962-5.886-2.017-12.602.563-18.312 4.291-7.307 11.34-10.978 18.57-14.977 8.312-4.96 13.291-11.4 15.867-20.711 1.271-5.845 1.17-11.666 1.21-17.617l.087-6.969c.04-3.63.078-7.262.104-10.893.203-25.476 2.591-46.928 18.599-67.521l1.934-2.492C690.679 486.393 721.35 464.98 740 477"/><path fill="#e22e2d" d="m330.184 544.86 3.136-.01q5.211-.01 10.421-.011l7.466-.015q10.146-.019 20.294-.024l12.677-.012q17.56-.019 35.119-.026h4.544l6.848-.003q18.333-.008 36.666-.045 18.833-.035 37.667-.037 10.57.001 21.14-.025 9.942-.024 19.886-.01 3.646.002 7.293-.013a1431 1431 0 0 1 9.968.004l2.905-.025c6.716.05 13.453.801 18.907 5.04 4.794 6.288 6.937 11.33 5.879 19.352-1.658 5.548-4.454 8.895-9.219 12.09-3.765 1.924-7.39 2.051-11.57 2.112l-3.601.059-3.958.049-4.198.061q-5.763.083-11.526.15l-7.35.093c-40.205.513-80.41.574-120.617.571-7.983 0-15.967.012-23.95.026q-11.772.019-23.542.018-6.933-.002-13.868.013-6.435.014-12.87.003a1023 1023 0 0 0-4.678.007c-25.133.092-25.133.092-34.303-8.315-2.92-4.902-4.348-10.558-3.34-16.253 1.87-5.385 4.562-9.476 9.528-12.434 6.068-2.477 11.78-2.396 18.246-2.39"/><path fill="#e32e2e" d="M328.526 455.74c.833-.005 1.665-.008 2.523-.012 2.777-.01 5.553-.007 8.33-.003l5.988-.015a5495 5495 0 0 1 16.24-.012q6.785 0 13.568-.008a19935 19935 0 0 1 32.017-.006c11.001.006 22.002-.006 33.003-.027q14.18-.026 28.36-.02c5.643.001 11.285-.001 16.927-.015q7.962-.018 15.922.002 2.916.004 5.833-.009c2.661-.01 5.322-.002 7.983.01l2.312-.022c6.805.068 13.075 1.368 18.343 5.834L538 464l1.75 2.062c2.64 4.091 2.575 8.146 2.25 12.938-2.034 6.818-5.873 10.244-11.591 14.063-3.538 1.376-7.022 1.215-10.764 1.198l-2.577.011c-2.855.01-5.71.007-8.565.003l-6.135.015c-5.56.014-11.12.014-16.68.012q-6.963 0-13.926.008-16.433.016-32.864.006c-11.296-.006-22.592.006-33.887.027q-14.55.026-29.099.02c-5.792-.001-11.584.001-17.377.015q-8.175.018-16.352-.002-2.996-.004-5.993.009c-2.733.01-5.466.002-8.2-.01l-2.377.022c-7.08-.07-13.895-1.316-19.05-6.46-3.684-4.887-4.988-10.266-4.286-16.332 1.61-6.173 5.305-10.323 10.723-13.605 5.333-1.836 9.967-2.288 15.526-2.26m10.204 177.115 4.099-.01q5.528-.014 11.057-.012 3.461-.001 6.923-.006 12.095-.014 24.19-.012 11.244-.001 22.49-.026 9.682-.019 19.366-.018 5.77.002 11.541-.013 5.427-.014 10.854-.003c1.949.002 3.897-.006 5.846-.015 8.984.032 17.775.103 24.904 6.26 4.252 4.859 5.693 9.152 5.375 15.59-.55 3.532-1.725 6.247-3.375 9.41h-2v2c-8.296 5.402-16.1 5.782-25.687 5.812q-2.507.035-5.012.072c-5.15.067-10.298.09-15.448.104q-5.271.017-10.542.042-15.322.07-30.643.091l-5.163.009c-17.597.03-35.197.01-52.79-.402q-2.122-.048-4.246-.081c-15.82-.264-15.82-.264-22.492-5.12-4.01-4.716-5.844-9.294-5.977-15.527.935-6.018 3.169-10.18 8-14 8.37-5.326 19.17-4.149 28.73-4.145"/><path fill="#d91e1b" d="M197 282h1l.003 2.62a222078 222078 0 0 0 .26 172.362l.006 3.718q.051 29.769.081 59.538.033 30.567.099 61.133.04 18.847.05 37.694.01 12.94.047 25.88.023 7.456.019 14.911-.004 6.845.028 13.691.008 2.457 0 4.915c-.043 14.801.98 30.324 6.47 44.226l.9 2.348c10.811 26.86 31.918 46.17 57.475 58.777 16.51 6.77 32.446 6.772 50.047 6.71 3.854-.01 7.708.005 11.562.016 7.526.018 15.052.014 22.579.002q9.174-.013 18.348-.006l2.646.002 5.322.004c16.592.011 33.184-.002 49.777-.023q21.348-.026 42.698.003a24395 24395 0 0 0 54.947.014l2.63-.002q9.17-.003 18.339.012 11.164.018 22.328-.013c3.796-.01 7.592-.015 11.388-.001 4.114.014 8.227-.003 12.34-.023l3.64.027c6.273-.06 10.252-.223 14.971-4.535 3.761-5.14 3.832-10.864 3-17-2.055-4.037-4.694-6.93-8-10 3.67.21 4.951.955 7.688 3.5 3.272 4.33 4.648 9.272 4.085 14.68-1.25 5.613-3.05 9.48-7.586 13.008-7.12 4.048-13.319 4.099-21.335 4.073l-3.741.011q-5.13.012-10.26.004c-3.69-.002-7.382.007-11.074.014q-10.848.018-21.695.012-8.827-.002-17.653.005l-2.539.001-5.108.004q-23.957.014-47.915.003c-14.583-.006-29.166.006-43.75.025q-22.487.03-44.975.024-12.615-.005-25.228.014-10.75.019-21.497.002c-3.65-.006-7.3-.008-10.95.005-34.617.106-34.617.106-51.092-6.01l-2.092-.76C253.629 783.158 243.393 776.13 234 768l-2.48-2.043c-11.984-10.2-22-24.161-27.52-38.957l-2 1-.332-2.203c-1.01-6.41-2.298-12.644-3.984-18.91-1.36-5.738-1.81-11.307-1.81-17.193l-.004-2.135c-.004-2.356 0-4.711.003-7.066l-.005-5.125q-.005-7.034.001-14.067.002-7.589-.004-15.176-.005-14.86 0-29.72a58065 58065 0 0 0 0-34.587q-.004-32.709.006-65.418.005-28.09-.001-56.181a168317 168317 0 0 1-.003-75.603q0-12.066-.003-24.133-.005-14.69.003-29.38.005-7.502 0-15.003-.004-6.856.004-13.713.001-2.49-.002-4.98-.003-3.365.005-6.73v-3.788C196 284 196 284 197 282"/><path fill="#e32e2e" d="M486 278c4.112 2.833 8.066 6.198 9.688 11.063L496 291l.496 1.863c1.647 6.982.576 12.53-2.89 18.774-4.343 6.392-9.521 10.037-16.997 11.941-4.218.682-8.352.667-12.609.422v-2l-2.562-.625c-6.194-2.477-10.117-5.93-12.875-12.062-2.503-7.08-2.164-14.064-.563-21.313h2l.563-2.125c2.581-5.163 6.983-8.485 12.25-10.75 8.379-2.701 15.66-1.47 23.187 2.875"/><path fill="#e32f2e" d="M403.375 276.563c5.13 2.797 7.728 5.415 10.625 10.437l2 2c1.685 8.829 1.632 16.633-3.48 24.188-5.02 6.247-10.426 9.523-18.332 10.812-7.089.459-13.983-2.035-19.625-6.312-6.141-6.44-7.742-12.525-7.665-21.204.119-2.889.507-5.655 1.102-8.484h2l.563-2.125c2.56-5.12 6.809-7.936 11.687-10.75 7.703-2.311 13.786-1.939 21.125 1.438"/><path fill="#e32e2e" d="M328 279c5.427 4.717 8.307 10.308 9.352 17.379.405 6.816-1.466 12.045-5.352 17.621-5.466 5.962-10.68 9.12-18.82 9.965-6.586.106-12.089-1.779-17.18-5.965-6.518-6.705-8.457-11.56-8.432-20.926.21-7.437 2.33-10.883 7.334-16.031 9.778-9.215 22.07-9.704 33.098-2.043"/><path fill="#dc211e" d="M230 395h474v2l-145 1v1h-5v-2l-274 1v1h-7v-1h-40l.016 15.671q.024 25.703.036 51.405.007 15.575.023 31.15.015 13.587.02 27.175 0 7.182.01 14.366.011 6.785.008 13.57 0 2.467.006 4.935c.026 11.607-.412 23.143-1.119 34.728-36.242-54.363-2-130.663-2-196"/><path fill="#dd221e" d="M328.526 455.74c.833-.005 1.665-.008 2.523-.012 2.777-.01 5.553-.007 8.33-.003l5.988-.015a5495 5495 0 0 1 16.24-.012q6.785 0 13.568-.008a19935 19935 0 0 1 32.017-.006c11.001.006 22.002-.006 33.003-.027q14.18-.026 28.36-.02c5.643.001 11.285-.001 16.927-.015q7.962-.018 15.922.002 2.916.004 5.833-.009c2.661-.01 5.322-.002 7.983.01l2.312-.022c6.805.068 13.075 1.368 18.343 5.834L538 464l1.75 2.062c2.64 4.091 2.575 8.146 2.25 12.938-2.034 6.818-5.873 10.244-11.591 14.063-3.538 1.376-7.022 1.215-10.764 1.198l-2.577.011c-2.855.01-5.71.007-8.565.003l-6.135.015c-5.56.014-11.12.014-16.68.012q-6.963 0-13.926.008-16.433.016-32.864.006c-11.296-.006-22.592.006-33.887.027q-14.55.026-29.099.02c-5.792-.001-11.584.001-17.377.015q-8.175.018-16.352-.002-2.996-.004-5.993.009c-2.733.01-5.466.002-8.2-.01l-2.377.022c-7.08-.07-13.895-1.316-19.05-6.46-3.684-4.887-4.988-10.266-4.286-16.332 1.61-6.173 5.305-10.323 10.723-13.605 5.333-1.836 9.967-2.288 15.526-2.26M306.5 465.5c-2.22 5.18-2.255 9.95-1.5 15.5 2.152 4.463 4.905 7.236 9 10 4.076 1.266 8.131 1.148 12.362 1.147l2.58.011q4.284.015 8.57.019l6.14.02q10.089.028 20.176.041l6.946.013q16.314.029 32.629.041 18.833.015 37.665.077 14.558.044 29.114.048c5.796.002 11.592.011 17.388.036q8.18.034 16.36.018 3 0 5.999.02a747 747 0 0 0 8.201-.003l2.386.033c6.818-.079 12.08-2.177 16.984-6.959 2.49-5.914 3.009-12.794.582-18.855-2.673-4.057-5.576-5.82-10.082-7.707-2.897-.42-5.755-.41-8.678-.388l-2.61-.016c-2.878-.014-5.757-.007-8.635 0l-6.2-.02c-5.61-.019-11.22-.018-16.829-.012-4.684.003-9.369-.003-14.053-.009q-16.579-.02-33.157-.001c-11.398.011-22.796-.003-34.195-.03q-14.685-.032-29.368-.022c-5.846.003-11.69 0-17.536-.017a2645 2645 0 0 0-16.493.008q-3.024.005-6.047-.01a738 738 0 0 0-8.267.016l-2.405-.03c-6.852.09-12.152 2.156-17.027 7.031"/><path fill="#d71815" d="m622.875 358.438 3.31.019c26.938.158 53.877.336 80.815.543l1 3a400800 400800 0 0 1-134.298-.201l-2.007-.004-64.336-.112-2.128-.004q-34.163-.06-68.324-.104-36.09-.047-72.18-.118-21.628-.043-43.258-.064-14.814-.016-29.628-.052-8.559-.022-17.117-.025-7.824-.003-15.65-.03-2.84-.007-5.68-.004-3.842.001-7.685-.02l-2.26.01c-3.705-.031-5.281-.16-8.449-2.272a140906 140906 0 0 1 126.976-.582c85.874-.36 171.74-.503 260.899.02"/><path fill="#da201d" d="M289 756h310l1 3a181365 181365 0 0 1-129.498.11l-2.75.001q-22.04.015-44.08.043-22.614.028-45.227.034-13.956.004-27.91.028-9.57.015-19.136.011-5.521-.003-11.042.011c-3.992.012-7.983.008-11.974.003l-3.523.017c-5.682-.02-10.5-.321-15.86-2.258z"/><path fill="#d40c0a" d="M360.475 185.87q6.321.001 12.643-.005 12.304-.005 24.607 0 10.035.003 20.072.001h2.917l5.874-.001q27.375-.004 54.751.006 23.3.005 46.6-.001a117389 117389 0 0 1 60.39-.004h2.91q9.97.002 19.94-.002c68.493-.022 68.493-.022 99.953.582l3.197.059q4.342.083 8.683.183l2.49.05c4.578.117 8.976.523 13.498 1.262v2H283l1-2c4.45-1.037 8.864-1.185 13.418-1.312l2.165-.062q3.525-.096 7.049-.18l2.478-.064c17.122-.435 34.238-.527 51.365-.513"/><path fill="#d7120f" d="M826 283c2.41 3.615 2.259 5.268 2.278 9.572l.018 2.043c.017 2.274.02 4.548.023 6.823l.03 4.92c.028 4.52.043 9.038.056 13.557.016 4.864.043 9.728.068 14.592.048 9.527.084 19.054.117 28.581q.04 11.616.09 23.23c.281 65.406.42 130.812.441 196.217l.01 19.165q.011 16.638.003 33.277-.001 5.505.002 11.008c.023 35.457.023 35.457-1.136 52.015l-2 1z"/><path fill="#db211e" d="m367.354 544.839 6.73-.015q9.09-.019 18.18-.024l11.369-.012q15.771-.019 31.542-.026h4.067l4.084-.002h2.046q16.436-.009 32.87-.046 16.916-.035 33.831-.037 9.482 0 18.963-.025 8.91-.023 17.818-.01 3.264.002 6.53-.013c2.975-.013 5.951-.007 8.927.004l2.594-.025c6.452.053 12.996.984 18.216 5.04 4.265 5.594 6.335 9.847 6.215 16.993-.566 3.971-2.33 6.912-4.336 10.359l-3-1 .875-1.469c2.862-5.167 3.791-8.628 3.125-14.531-1.954-5.347-4.912-8.456-10-11-3.11-.106-6.2-.15-9.311-.151l-2.963-.013q-4.944-.018-9.89-.025l-7.064-.026q-7.624-.027-15.247-.045-11.033-.029-22.064-.07-17.91-.064-35.821-.118l-2.167-.006-34.752-.105q-17.835-.054-35.67-.119-11.982-.042-23.965-.071-7.453-.021-14.908-.05a4573 4573 0 0 0-6.92-.018q-4.719-.01-9.439-.032h-2.772c-4.462-.026-8.655-.248-13.047-1.151v-1c11.777-1.22 23.528-1.155 35.354-1.161"/><path fill="#dc1e1a" d="m330.856 632.866 3.55-.013 3.87.002 4.097-.01q5.553-.014 11.108-.012l6.948-.006q12.135-.014 24.268-.012 11.289-.001 22.578-.026 9.708-.019 19.417-.018 5.79.002 11.582-.013 5.451-.014 10.903-.003c1.958.002 3.916-.006 5.874-.015 9 .032 17.807.092 24.949 6.26 4.252 4.859 5.693 9.152 5.375 15.59-.55 3.532-1.725 6.247-3.375 9.41h-2v2c-8.296 5.402-16.1 5.782-25.688 5.813q-2.505.033-5.011.071c-5.15.067-10.298.09-15.448.104q-5.271.017-10.542.042-15.322.07-30.643.091l-5.163.009c-23.189.04-46.331-.266-69.505-1.13v-2l2.317-.007q27.945-.089 55.89-.229 13.514-.07 27.027-.11 11.783-.034 23.564-.103 6.236-.037 12.471-.049 5.876-.01 11.753-.056a585 585 0 0 1 4.299-.011c13.128.24 13.128.24 24.179-5.872 2.74-4.683 3.042-9.17 2.5-14.563-1.56-4.97-4.05-7.344-8.383-9.942-5.526-2.234-11.514-1.756-17.387-1.717q-2.232-.014-4.466-.032c-4.022-.028-8.044-.026-12.066-.018-4.211.003-8.422-.022-12.633-.044-7.964-.037-15.929-.05-23.894-.052a8076 8076 0 0 1-27.214-.073A17782 17782 0 0 0 320 636v-2c3.68-.848 7.082-1.127 10.856-1.134"/><path fill="#da1815" d="M695 548h1c1.099 13.34 1.19 26.622 1 40l-.022 2.673c-.245 21.522-6.664 38.343-21.623 54.124C673 647 673 647 671 647c1.5 3.707 3.622 5.551 6.688 8.063 5.357 4.691 8.848 9.76 12.312 15.937l1.938 3.313c1.212 3.066 1.295 5.418 1.062 8.687-2.385-2.385-2.961-4.342-4.125-7.5-4.07-9.92-10.225-16.507-18.871-22.71-2.173-1.941-2.66-2.945-3.004-5.79l1.758-1.285c12.688-9.527 20.933-21.838 23.772-37.67.715-5.214.684-10.456.751-15.71l.056-3.363c.078-4.73.146-9.46.215-14.19q.08-5.191.167-10.384l.04-3.235.052-3.025.038-2.648c.156-2.574.588-4.976 1.151-7.49"/><path fill="#da1b18" d="M823 710h1c-.366 20.507-16.415 39.86-30.234 53.6-10.052 9.66-25.711 21.552-40.266 22.212-7.022-.543-11.299-3.385-15.937-8.5-2.322-4.921-3.446-10.081-1.981-15.44.793-1.872.793-1.872 2.418-4.872l1-2 3 1-1.473 2.129c-2.55 4.793-2.158 9.576-1.527 14.871 1.844 4.204 3.253 5.56 7.188 7.875 9.891 2.919 17.002.24 25.843-4.5C797.941 761.282 813.785 738.072 823 710"/><path fill="#dd2320" d="M659 693c3.761 3.761 3.126 9.325 3.142 14.394l.021 3.786.006 2.003q.012 3.146.041 6.29c.052 5.96.1 11.919.116 17.879.01 3.657.04 7.314.081 10.972q.019 2.064.015 4.13c-.015 12.772 1.965 25.233 7.746 36.75.883 1.907 1.383 3.747 1.832 5.796-3-1-3-1-4.5-3.738-6.544-15.592-8.66-29.852-8.598-46.7l.005-4.472q.006-5.85.024-11.698.014-5.983.02-11.966.016-11.713.049-23.426"/><path fill="#da1916" d="M693 684h2c1.517 5.268 1.38 10.68 1.563 16.125l.13 3.694c.364 11.456.373 22.906.27 34.367-.357 15.997-.357 15.997 2.975 31.501l1.027 2.95c.92 2.49.92 2.49 3.035 4.363l1.625 3.188c2.16 3.904 5.052 6.424 8.473 9.234 1.741 1.445 3.33 2.952 4.902 4.578l-2 1c-12.335-8.07-19.186-19.014-22.358-33.173-1.185-7.066-1.126-14.136-1.154-21.284l-.054-4.922c-.047-4.272-.077-8.545-.104-12.817-.03-4.378-.076-8.756-.121-13.134q-.127-12.835-.209-25.67"/><path fill="#d91a17" d="M244 251h2c-1.516 4.036-3.423 7.754-5.437 11.563-4.743 9.39-6.657 18.128-7.133 28.617l-.127 2.741c-.504 12.21-.373 24.425-.303 36.642q.04 7.095.063 14.19l.025 3.252.01 3.009.016 2.634c-.11 2.256-.482 4.19-1.114 6.352h-2q-.106-13.693-.155-27.386-.022-6.36-.071-12.72-.048-6.158-.059-12.314a663 663 0 0 0-.032-4.66c-.187-18.48 2.857-36.73 14.317-51.92"/><path fill="#dd1d1a" d="m465 277-1.828 1.137C456.84 282.19 452.488 285.703 450 293c-.867 6.437-.987 12.352 2.5 18 3.27 4.101 6.422 7.385 11.5 9 7.742.856 14.146.962 21-3l2.625-1.5c4.382-4.612 6.474-11.239 6.938-17.562-.757-5.295-2.949-9.327-5.563-13.938l-1-2h3c2.688 2.846 4.375 5.125 5 9l.496 1.863c1.647 6.982.576 12.53-2.89 18.774-4.343 6.392-9.521 10.037-16.997 11.941-4.218.682-8.352.667-12.609.422v-2l-2.562-.625c-6.194-2.477-10.117-5.93-12.875-12.062-2.503-7.08-2.164-14.064-.563-21.313h2l.563-2.125c2.771-5.543 8.119-10.77 14.437-8.875"/><path fill="#dd1f1c" d="M386 274c8.936-.95 15.571.896 23 6 2.141 2.249 3.431 4.281 5 7l2 2c1.685 8.829 1.632 16.633-3.48 24.188-5.02 6.247-10.426 9.523-18.332 10.812-7.144.462-14.06-2.05-19.688-6.437-2.39-2.451-4.132-4.425-5.5-7.563.434-2.152.434-2.152 1-4l1.031 1.793c3.402 5.546 6.573 10.173 12.969 12.207 7.678.85 14.233 1.043 21-3 4.57-4.039 7.66-7.523 8.504-13.672.243-7.324.167-13.715-4.688-19.629-6.476-6.058-14.261-6.708-22.816-7.699z"/><path fill="#d91715" d="M231 609h1c1.013 14.013 1.155 27.987 1.13 42.032q-.005 5.49.007 10.978c.003 11.701-.06 23.331-1.137 34.99-2.352-3.67-2.277-7.196-2.243-11.411l-.006-2.244c-.003-2.444.007-4.889.019-7.333V670.9q.003-5.358.024-10.715.023-6.849.02-13.699.001-5.28.013-10.56.004-2.523.006-5.048.004-3.54.022-7.078l-.002-2.087c.029-4.342.45-8.44 1.147-12.713"/><path fill="#dd1b18" d="m646 627-2.633 1.574c-11.709 6.223-11.709 6.223-18.992 16.551-.851 6.524-1.42 12.247 2.48 17.902 4.085 3.758 9.252 5.775 14.243 8.098 7.011 3.285 12.046 7.127 15.902 13.875l-1 2c-2.119-2.119-4.217-4.235-6.25-6.437-5.052-4.708-10.702-7.55-16.937-10.438-5.392-2.634-7.943-4.88-10.813-10.125-1.962-5.886-2.017-12.602.563-18.312 3.923-6.69 15.523-17.326 23.437-14.688"/><path fill="#d40f0d" d="M332.269 632.886h2.16c2.342 0 4.685.008 7.028.016l4.889.005q6.418.006 12.837.024 6.555.014 13.112.02 12.853.016 25.705.049v2h6v1h-84v-2c4.142-.998 8.015-1.12 12.269-1.114"/><path fill="#d81a17" d="m265 196-1.614.82c-12.056 6.19-22.7 12.657-32.386 22.18l-1.51 1.472C222.022 227.874 216.382 236.02 211 245l-1.75 2.91L208 250c-.734-1.598-.734-1.598-1-4a53 53 0 0 1 3.75-6.437l1.235-1.861c11.45-16.88 25.29-29.662 43.015-39.702l3.227-1.844c3.042-1.268 3.769-1.097 6.773-.156"/><path fill="#db1c19" d="M233 703h2l.848 2.422c7.226 19.797 18.473 34.835 37.902 43.953 4.695 2.034 9.426 3.922 14.25 5.625v1c-12.57 0-24.29-7.428-33.031-15.98L253 738l-2.687-2.5c-8.74-9.448-15.678-19.506-17.313-32.5"/><path fill="#de201d" d="m325.738 544.902 3.233.01 3.341.025 3.4.014q4.145.018 8.288.049v1l-6 1v1l-2.016.028c-3.037.054-6.073.138-9.109.222l-3.172.043c-6.148.195-10.065.519-14.703 4.707-3.427 5.598-4.169 11.528-3 18 2.251 4.34 4.909 6.535 9.375 8.438L318 580l-1 2c-5.298-.321-8.499-3.29-12-7-2.582-4.46-3.654-10.047-2.531-15.117 1.91-5.501 4.36-9.59 9.469-12.633 4.66-1.902 8.788-2.374 13.8-2.348"/><path fill="#dc1d1a" d="M740 477c4.281 3.684 7.447 7.372 8.32 13.102.298 5.776-1.027 10.148-4.32 14.898-4.281 4.4-9.895 6.806-16 7.188l-2-.188c2.205-2.205 3.311-2.498 6.25-3.312 5.58-1.798 9.328-4.03 12.188-9.375 1.032-6.084.6-11.308-2.25-16.813-2.206-2.52-3.114-3.382-6.188-4.5a95 95 0 0 0-7.812-.187l-2.08.001c-4.457.038-8.71.467-13.108 1.186v-2c19.322-4.948 19.322-4.948 27 0"/><path fill="#dc1a17" d="m300 277 3 1c-5.75 5-5.75 5-8 5-3.34 6.446-6.408 13.63-5 21 2.086 6.48 5.227 11.398 11.11 14.95 6.039 2.195 12.526 2.034 18.89 2.05l-1 2c-7.353 1.576-13.515.845-20.187-2.687-5.595-4.6-10.422-9.506-11.184-16.922-.399-13.393-.399-13.393 3.805-18.77 5.91-6.117 5.91-6.117 8.566-7.621m8-2c7.741-.646 13.744-.814 20.059 4.082 5.732 5.663 8.975 11.487 9.316 19.543-.103 6.998-2.715 12.435-7.383 17.594-3.735 3.473-3.735 3.473-5.992 4.781l-3-1 1.828-1.215c5.808-4.131 9.45-7.749 11.172-14.785 1.038-7.883-.427-13.413-5.062-19.875-1.76-2.186-1.76-2.186-3.938-3.125v-2c-5.656-1.348-11.219-2.37-17-3z"/><path fill="#d61d19" d="M792 217c4.048 1.589 6.376 4.306 9.25 7.5l1.39 1.512C806 229.74 806 229.74 806 232h2l.883 1.617c2.268 4.122 4.601 8.157 7.117 12.133 4.48 7.428 8.449 15.434 8 24.25-2.24-3.36-3.42-6.789-4.75-10.562-2.43-6.653-5.219-12.58-9.25-18.438l-1.84-2.7c-4.08-5.791-8.506-11.062-13.375-16.206C793 220 793 220 792 217"/><path fill="#d71c19" d="M741 804h3c3.37 5.792 5.153 10.27 4 17-2.194 6.853-6.114 10.852-12.375 14.313-5.214 1.365-10.418.989-15.625-.313v-2l2.379.105c7.697.199 12.673-.117 18.933-4.855 3.596-4.795 4.303-10.405 3.688-16.25-1.13-2.792-2.486-5.398-4-8"/><path fill="#d91b18" d="M672 796c3.244 3.042 5.977 6.22 8.688 9.75 7.18 9.012 15.157 15.127 25.21 20.523 2.565 1.428 4.82 2.894 7.102 4.727-5.531-.443-9.262-1.927-13.875-5.062l-1.846-1.23C687.055 817.774 678.867 809.3 672 799z"/><path fill="#d81c19" d="M749 192c5.268.448 9.24 1.83 13.984 4.16 2.114 1.032 2.114 1.032 5.016.84a89 89 0 0 1 3 3 162 162 0 0 0 5.125 3.25c5.235 3.27 10.087 6.86 14.875 10.75l-1 3-1.66-1.434c-10.22-8.524-21.16-15.183-33.68-19.715-4.568-1.666-4.568-1.666-5.66-3.851"/><path fill="#dc1b19" d="M586.418 551.27c4.105 4.49 5.125 9.553 4.953 15.44-.635 3.916-2.387 6.88-4.371 10.29l-3-1 .875-1.469c2.862-5.167 3.791-8.628 3.125-14.531-1.954-5.347-4.912-8.456-10-11a76 76 0 0 0-4.352-.316l-2.578-.127-2.695-.12-2.719-.13q-3.327-.16-6.656-.307v-1q4.093-.293 8.188-.562l2.33-.17c7.177-.462 11.482.032 16.9 5.002"/><path fill="#db1a16" d="M319 635c-3 2-3 2-5.937 3.25-3.92 2.24-5.203 3.6-7.063 7.75-.782 5.236-1.268 10.49 1.176 15.328 2.756 3.39 5.525 5.534 9.824 6.672v1c-3.33-.067-5.985-.253-8.73-2.273-4.335-4.56-6.136-9.455-6.27-15.727.943-6.071 3.217-10.054 8-14 3.435-2.29 4.985-2.178 9-2"/><path fill="#db1b17" d="M286 225c-1 2-1 2-3.773 3.043l-3.602 1.144c-10.473 3.552-18.457 9.26-26.434 16.895-2.01 1.76-3.752 2.868-6.191 3.918 2.762-4.49 5.773-8.02 9.813-11.437l1.685-1.432c7.65-6.21 18.482-12.402 28.502-12.131"/><path fill="#dc1e1b" d="M736.785 224.504c12.293 3.97 26.67 9.315 34.215 20.496-3.418-.597-5.164-1.792-7.75-4.062-9.273-7.422-20.633-12.575-32.25-14.938 3-2 3-2 5.785-1.496"/><path fill="#dd1e1b" d="M709 362c2.188.063 2.188.063 5 1 4.867 5.244 6.42 10.289 6.348 17.363-.735 5.573-3.983 9.272-7.848 13.137-2.786 1.671-4.31 1.865-7.5 1.5 2-2 2-2 4.375-3.312 3.913-2.516 6.156-5.28 7.625-9.688.778-6.582-.188-10.6-4-16-2.103-2.357-2.103-2.357-4-4"/><path fill="#de2826" d="M232 574h1v42h-3v-28h1z"/><path fill="#d81513" d="M230 544h1l.184 3.36.254 4.39.119 2.21c.194 3.989.194 3.989.97 7.89.633 2.876.477 5.506.352 8.447l-.147 3.652-.17 3.801-.158 3.848q-.195 4.701-.404 9.402c-2.09-3.135-2.247-3.818-2.227-7.38v-2.668l.032-2.87.008-2.947c.011-3.107.037-6.215.062-9.322q.016-3.16.027-6.319.035-7.748.098-15.494"/><path fill="#db1b18" d="M774 248c7.076 6.432 11.865 13.997 15.438 22.813l.784 1.92c1.363 3.54 2.074 6.474 1.778 10.267-2-1-2-1-3.07-3.652l-1.055-3.286-1.07-3.277C786 270 786 270 786 268l-2-1a84 84 0 0 1-2.312-4.687c-1.569-3.267-3.091-6.04-5.5-8.75C774 251 774 251 774 248"/><path fill="#da1916" d="M661 762c2.134 3.673 2.94 7.59 3.875 11.688 1.294 5.45 2.767 10.482 5.293 15.515.883 1.908 1.383 3.748 1.832 5.797-3-1-3-1-4.535-3.914q-.78-1.849-1.528-3.711l-1.535-3.664c-2.133-5.647-3.677-10.58-3.527-16.649l.055-2.902z"/><path fill="#dc1815" d="M710.426 479.277 712 480l-2.676 1.469C701.461 485.842 694.15 490.513 687 496c0-3 0-3 2.625-5.687 3.632-2.954 7.54-5.375 11.563-7.75l1.836-1.11c4.405-2.518 4.405-2.518 7.402-2.176"/><path fill="#dd1915" d="m680 500 2 1-1.723 2.133C674.368 510.689 670.012 518.279 666 527c-1.077-2.721-1.05-3.856-.066-6.664 3.795-7.472 8.102-14.372 14.066-20.336"/><path fill="#dc1a17" d="M725 512c-2.321 2.57-4.717 4.044-7.75 5.688-6.404 3.754-11.122 8.544-14.25 15.312h-2c2.963-9.48 13.266-22.087 24-21"/><path fill="#dc1f1c" d="M230 336c2.507 5.015 3.137 7.26 3.125 12.875l.008 3.742c-.106 2.69-.328 4.84-1.133 7.383h-2z"/><path fill="#df2422" d="m583 578-1 3c-5.192 1.09-10.07 1.048-15.336.879l-2.665-.072q-4.187-.116-8.374-.245l-5.7-.158q-6.962-.193-13.925-.404v-1l3.916-.076q7.173-.142 14.346-.296 3.108-.066 6.216-.125 4.46-.088 8.92-.187l2.82-.05 2.608-.06 2.301-.048c2.23-.188 3.61-1.158 5.873-1.158"/><path fill="#dc1f1c" d="M693 684h2c1.248 3.782 1.035 7.468.879 11.39l-.072 2.136q-.116 3.362-.245 6.724l-.158 4.57q-.194 5.59-.404 11.18h-1z"/><path fill="#db1814" d="m774 731 2 1c-4.498 6.265-11.92 13.368-19.371 15.762L755 748l-1-2 1.582-.742c7.188-3.65 12.656-8.711 18.418-14.258"/><path fill="#d91714" d="M826 544h1l.076 2.244c.117 3.398.24 6.796.361 10.193l.12 3.53c.234 6.395.661 12.681 1.443 19.033v2h-2c-1.21-3.632-1.124-6.951-1.098-10.73l.005-2.274c.005-2.395.018-4.79.03-7.183l.014-4.874q.017-5.97.049-11.939"/><path fill="#de211e" d="m372 283 3 1-1.922 2.508c-2.38 3.57-2.936 7.156-3.328 11.367l-.234 2.086A355 355 0 0 0 369 305l-2-1c-.097-5.447-.129-10.639 1-16h2z"/><path fill="#df2622" d="m700 532 2 1-1.375 3.438c-2.463 7.26-2.884 14.974-3.625 22.562h-1c-1.76-10.488-.138-17.449 4-27"/><path fill="#da1916" d="M790 699h2c-.773 7.419-2.883 13.726-7 20-1.337-4.011-.213-5.573 1.375-9.437 2.134-5.18 2.134-5.18 3.625-10.563"/><path fill="#d81a17" d="M201 260h2c-.501 4.51-1.122 8.972-1.937 13.438l-.465 2.558L200 278l-2 1c-.386-6.822.991-12.496 3-19"/><path fill="#dd1915" d="M657 609c1 3 1 3 .145 4.867-5.313 8.008-5.313 8.008-8.145 11.133h-2c1.502-3.413 3.575-6.254 5.758-9.25 1.545-2.177 2.91-4.438 4.242-6.75"/><path fill="#da231f" d="M771 779c-7.32 6.15-13.76 6.41-23 6v-1h11v-2c7.286-3.429 7.286-3.429 12-3"/><path fill="#d81512" d="m740 777 2.188 1.875c4.91 3.353 11.05 3.475 16.812 4.125v1c-12.885.688-12.885.688-16.812-1.812L740 780z"/><path fill="#da1a17" d="m282 190-1 2c-2.617.852-2.617.852-5.875 1.625-1.605.39-1.605.39-3.242.79C269 195 269 195 266 195v-2c5.528-2.106 10.07-3.379 16-3"/><path fill="#db1a16" d="M663 528h2c-.59 5.508-1.567 10.649-3 16h-1c-.236-5.778.132-10.513 2-16"/><path fill="#db1915" d="M414 304h1c-.144 6.93-3.223 10.198-8 15l-3-1 2.188-1.375c3.873-3.616 5.665-7.839 7.812-12.625"/><path fill="#d7231f" d="M824 271h2c.365 1.748.716 3.498 1.063 5.25l.597 2.953c.324 2.665.195 4.286-.66 6.797l-2-1c-.414-3.16-.414-3.16-.625-7.062l-.227-3.91z"/><path fill="#dd201d" d="M467 274q2.406-.04 4.813-.062l2.707-.036C477 274 477 274 480 275v2l-14-1z"/><path fill="#d71513" d="M328 633v2h8v1h-16v-2c2.763-.597 5.16-1 8-1"/><path fill="#da1a16" d="M783 720c0 3.396-.522 4.066-2.5 6.688l-1.406 1.886L778 730l-1-3c3.268-5.634 3.268-5.634 6-7"/><path fill="#da1b18" d="M720 795q2.221.423 4.438.875l2.496.492L729 797l1 2c-3.47-.458-6.674-.891-10-2z"/><path fill="#d61310" d="M798 755h2c-1.583 4.274-4.506 6.265-8 9l-1-2 2.375-1.812c2.77-2.099 2.77-2.099 4.625-5.188"/><path fill="#d91512" d="M248 732c3 0 3 0 4.387 1.313L256 738l-1 2c-3.243-2.39-5.509-4.205-7-8"/><path fill="#dc1a16" d="m385 277-9 5v-3c3.618-2.814 4.384-3.154 9-2"/><path fill="#d91613" d="M731 799c5.625-.25 5.625-.25 9 2v2l-9-3z"/><path fill="#de211c" d="M762 743v2c-2.312 1.688-2.312 1.688-5 3l-3-1c5.217-4 5.217-4 8-4"/><path fill="#e93d39" d="M388 398h9v1h-9z"/><path fill="#e83e3d" d="M657 561h1v7c-1.062-1.812-1.062-1.812-2-4z"/><path fill="#e7403b" d="M395 495h7v1h-7z"/><path fill="#ea3e3a" d="M544 398h7v1h-7z"/><path fill="#e7403b" d="M508 495h6v1h-6z"/><path fill="#e83f3a" d="M403 495h6v1h-6z"/><path fill="#e93f3a" d="M307 398h6v1h-6z"/><path fill="#e9403b" d="M412 495h5v1h-5z"/><path fill="#e9413c" d="M365 495h5v1h-5z"/><path fill="#e93e3c" d="M348 495h5v1h-5z"/><path fill="#e93f3a" d="M657 398h5v1h-5zm-241 0h5v1h-5z"/><path fill="#ea3f39" d="M256 398h5v1h-5z"/><path fill="#e83e3b" d="m657 578 1 4Z"/><path fill="#e83f3c" d="m657 555 1 4Z"/><path fill="#e7403b" d="m516 495 4 1Z"/><path fill="#e53e3d" d="m730 472 4 1Z"/><path fill="#e83f3a" d="m618 398 4 1Zm-17 0 4 1Z"/><path fill="#e93e3a" d="m531 398 4 1Z"/><path fill="#ea3f3b" d="m513 398 4 1Z"/><path fill="#e93f3b" d="m497 398 4 1Z"/><path fill="#e93e3b" d="m410 398 4 1Z"/><path fill="#e83e3a" d="m370 398 4 1Z"/><path fill="#e93f3c" d="m265 398 4 1Z"/><path fill="#df403d" d="M209 741h2l-1 2z"/><path fill="#e93f3b" d="m484 495 3 1Z"/><path fill="#e9403c" d="m439 495 3 1Z"/><path fill="#e8413c" d="m435 495 3 1Zm-16 0 3 1Z"/><path fill="#e8403a" d="m343 495 3 1Z"/><path fill="#e93e3a" d="m696 398 3 1Zm-190 0 3 1Z"/><path fill="#ea3e3a" d="m481 398 3 1Z"/><path fill="#e9403b" d="m474 398 3 1Z"/><path fill="#e93e3a" d="m467 398 3 1Z"/><path fill="#e83f3a" d="m434 398 3 1Z"/><path fill="#e93e39" d="m384 398 3 1Z"/><path fill="#e93e3b" d="m378 398 3 1Z"/><path fill="#e9403a" d="m314 398 3 1Z"/><path fill="#e9403b" d="m288 398 3 1Z"/><path fill="#e43e3a" d="m309 272 3 1Z"/><path fill="#d9403d" d="m729 837 2 1Z"/><path fill="#e2403d" d="m681 813 2 1Z"/><path fill="#de3f3d" d="m266 789 2 1Z"/><path fill="#e7403b" d="m496 495 2 1Z"/><path fill="#e8413c" d="m492 495 2 1Z"/><path fill="#e9403d" d="m471 495 2 1Z"/><path fill="#e83f3a" d="m468 495 2 1Z"/><path fill="#e8403d" d="m432 495 2 1Z"/><path fill="#e7413c" d="m423 495 2 1Z"/><path fill="#e7413b" d="m392 495 2 1Z"/><path fill="#e93f39" d="m380 495 2 1Z"/><path fill="#e8403b" d="m373 495 2 1Z"/><path fill="#e4403c" d="m313 456 2 1Z"/><path fill="#e83e3a" d="m675 398 2 1Z"/><path fill="#ea403a" d="m668 398 2 1Z"/><path fill="#eb3f3a" d="m635 398 2 1Z"/><path fill="#e93f39" d="m627 398 2 1Z"/><path fill="#e83e3a" d="m579 398 2 1Z"/><path fill="#ea3e3b" d="m576 398 2 1Z"/><path fill="#e93f3b" d="m571 398 2 1Z"/><path fill="#e93e3b" d="m563 398 2 1Z"/><path fill="#ea3f3a" d="m528 398 2 1Z"/><path fill="#e93f3b" d="m523 398 2 1Z"/><path fill="#e93e3b" d="m443 398 2 1Z"/><path fill="#ea3e39" d="m428 398 2 1Z"/><path fill="#e83f3b" d="m403 398 2 1Z"/><path fill="#e93e3a" d="m363 398 2 1Z"/><path fill="#e83f3b" d="m339 398 2 1Z"/><path fill="#e93e3b" d="m332 398 2 1Z"/><path fill="#e93e39" d="m329 398 2 1Z"/><path fill="#ea3e3b" d="m304 398 2 1Z"/><path fill="#e93f3b" d="m299 398 2 1Z"/><path fill="#eb3f3b" d="m296 398 2 1Z"/><path fill="#e83c3a" d="m283 398 2 1Z"/><path fill="#e93e3a" d="m251 398 2 1Z"/><path fill="#e63e39" d="m477 324 2 1Z"/><path fill="#e83b3a" d="m397 324 2 1Z"/><path fill="#e63e3a" d="m736 228 2 1Z"/><path fill="#e63f3b" d="m282 228 2 1Z"/><path fill="#db413e" d="m756 192 2 1Z"/></svg>